<mxfile host="app.diagrams.net" modified="2024-03-24T02:13:07.845Z" agent="Mozilla/5.0 (Windows NT 10.0; Win64; x64) AppleWebKit/537.36 (KHTML, like Gecko) Chrome/123.0.0.0 Safari/537.36" etag="e3HfrkhpuvQVfvHYro_g" version="24.1.0" type="github">
  <diagram name="Page-1" id="58cdce13-f638-feb5-8d6f-7d28b1aa9fa0">
    <mxGraphModel dx="1434" dy="1634" grid="1" gridSize="10" guides="1" tooltips="1" connect="1" arrows="1" fold="1" page="1" pageScale="1" pageWidth="1100" pageHeight="850" background="none" math="0" shadow="0">
      <root>
        <mxCell id="0" />
        <mxCell id="1" parent="0" />
        <mxCell id="382b91b5511bd0f7-1" value="" style="ellipse;html=1;shape=startState;fillColor=#0000CC;strokeColor=#0000CC;rounded=1;shadow=0;comic=0;labelBackgroundColor=none;fontFamily=Verdana;fontSize=12;fontColor=#000000;align=center;direction=south;" parent="1" vertex="1">
          <mxGeometry x="260" y="-20" width="30" height="30" as="geometry" />
        </mxCell>
        <mxCell id="N5seUgb6FrTklpnqwTxx-52" style="edgeStyle=orthogonalEdgeStyle;rounded=0;orthogonalLoop=1;jettySize=auto;html=1;" edge="1" parent="1" source="382b91b5511bd0f7-6">
          <mxGeometry relative="1" as="geometry">
            <mxPoint x="190" y="160" as="targetPoint" />
          </mxGeometry>
        </mxCell>
        <mxCell id="382b91b5511bd0f7-6" value="&lt;font color=&quot;#0000ff&quot;&gt;Query&lt;/font&gt;" style="rounded=1;whiteSpace=wrap;html=1;arcSize=24;fillColor=#FFFFFF;strokeColor=#0000FF;shadow=0;comic=0;labelBackgroundColor=none;fontFamily=Verdana;fontSize=12;fontColor=#000000;align=center;" parent="1" vertex="1">
          <mxGeometry x="30" y="130" width="120" height="60" as="geometry" />
        </mxCell>
        <mxCell id="3cde6dad864a17aa-4" style="edgeStyle=orthogonalEdgeStyle;html=1;exitX=1;exitY=0.25;labelBackgroundColor=none;endArrow=open;endSize=8;strokeColor=#ff0000;fontFamily=Verdana;fontSize=12;align=left;exitDx=0;exitDy=0;" parent="1" source="382b91b5511bd0f7-9" edge="1">
          <mxGeometry relative="1" as="geometry">
            <Array as="points">
              <mxPoint x="1070" y="-5" />
            </Array>
            <mxPoint x="1070" y="250" as="sourcePoint" />
            <mxPoint x="295" y="-5" as="targetPoint" />
          </mxGeometry>
        </mxCell>
        <mxCell id="382b91b5511bd0f7-9" value="Send Response OR&lt;div&gt;&lt;span style=&quot;background-color: initial;&quot;&gt;&amp;nbsp;F&lt;/span&gt;&lt;span style=&quot;background-color: initial;&quot;&gt;eedback&lt;/span&gt;&lt;/div&gt;" style="rounded=1;whiteSpace=wrap;html=1;arcSize=24;fillColor=#ffffc0;strokeColor=#ff0000;shadow=0;comic=0;labelBackgroundColor=none;fontFamily=Verdana;fontSize=12;fontColor=#000000;align=center;" parent="1" vertex="1">
          <mxGeometry x="950" y="310" width="120" height="60" as="geometry" />
        </mxCell>
        <mxCell id="382b91b5511bd0f7-10" value="Activity" style="rounded=1;whiteSpace=wrap;html=1;arcSize=24;fillColor=#ffffc0;strokeColor=#ff0000;shadow=0;comic=0;labelBackgroundColor=none;fontFamily=Verdana;fontSize=12;fontColor=#000000;align=center;" parent="1" vertex="1">
          <mxGeometry x="265" y="320" width="120" height="60" as="geometry" />
        </mxCell>
        <mxCell id="3cde6dad864a17aa-5" style="edgeStyle=elbowEdgeStyle;html=1;labelBackgroundColor=none;endArrow=open;endSize=8;strokeColor=#ff0000;fontFamily=Verdana;fontSize=12;align=left;" parent="1" source="2a3bc250acf0617d-7" target="382b91b5511bd0f7-9" edge="1">
          <mxGeometry relative="1" as="geometry">
            <Array as="points">
              <mxPoint x="950" y="440" />
            </Array>
          </mxGeometry>
        </mxCell>
        <mxCell id="2a3bc250acf0617d-7" value="Container" style="swimlane;whiteSpace=wrap;html=1;rounded=1;shadow=0;comic=0;labelBackgroundColor=none;strokeWidth=1;fontFamily=Verdana;fontSize=12;align=center;" parent="1" vertex="1">
          <mxGeometry x="95" y="495" width="930" height="200" as="geometry" />
        </mxCell>
        <mxCell id="3cde6dad864a17aa-10" style="edgeStyle=elbowEdgeStyle;html=1;labelBackgroundColor=none;endArrow=open;endSize=8;strokeColor=#ff0000;fontFamily=Verdana;fontSize=12;align=left;" parent="2a3bc250acf0617d-7" source="382b91b5511bd0f7-8" target="3cde6dad864a17aa-1" edge="1">
          <mxGeometry relative="1" as="geometry" />
        </mxCell>
        <mxCell id="382b91b5511bd0f7-8" value="ID" style="rounded=1;whiteSpace=wrap;html=1;arcSize=24;fillColor=#ffffc0;strokeColor=#ff0000;shadow=0;comic=0;labelBackgroundColor=none;fontFamily=Verdana;fontSize=12;fontColor=#000000;align=center;" parent="2a3bc250acf0617d-7" vertex="1">
          <mxGeometry x="215" y="65" width="120" height="60" as="geometry" />
        </mxCell>
        <mxCell id="24f968d109e7d6b4-3" value="" style="ellipse;html=1;shape=endState;fillColor=#000000;strokeColor=#ff0000;rounded=1;shadow=0;comic=0;labelBackgroundColor=none;fontFamily=Verdana;fontSize=12;fontColor=#000000;align=center;" parent="2a3bc250acf0617d-7" vertex="1">
          <mxGeometry x="815" y="80" width="30" height="30" as="geometry" />
        </mxCell>
        <mxCell id="3cde6dad864a17aa-9" style="edgeStyle=elbowEdgeStyle;html=1;labelBackgroundColor=none;endArrow=open;endSize=8;strokeColor=#ff0000;fontFamily=Verdana;fontSize=12;align=left;" parent="2a3bc250acf0617d-7" source="2a3bc250acf0617d-3" target="382b91b5511bd0f7-8" edge="1">
          <mxGeometry relative="1" as="geometry" />
        </mxCell>
        <mxCell id="2a3bc250acf0617d-3" value="" style="ellipse;html=1;shape=startState;fillColor=#000000;strokeColor=#ff0000;rounded=1;shadow=0;comic=0;labelBackgroundColor=none;fontFamily=Verdana;fontSize=12;fontColor=#000000;align=center;direction=south;" parent="2a3bc250acf0617d-7" vertex="1">
          <mxGeometry x="75" y="80" width="30" height="30" as="geometry" />
        </mxCell>
        <mxCell id="3cde6dad864a17aa-11" style="edgeStyle=elbowEdgeStyle;html=1;labelBackgroundColor=none;endArrow=open;endSize=8;strokeColor=#ff0000;fontFamily=Verdana;fontSize=12;align=left;" parent="2a3bc250acf0617d-7" source="3cde6dad864a17aa-1" target="3cde6dad864a17aa-2" edge="1">
          <mxGeometry relative="1" as="geometry" />
        </mxCell>
        <mxCell id="3cde6dad864a17aa-1" value="EGO" style="rounded=1;whiteSpace=wrap;html=1;arcSize=24;fillColor=#ffffc0;strokeColor=#ff0000;shadow=0;comic=0;labelBackgroundColor=none;fontFamily=Verdana;fontSize=12;fontColor=#000000;align=center;" parent="2a3bc250acf0617d-7" vertex="1">
          <mxGeometry x="400" y="65" width="120" height="60" as="geometry" />
        </mxCell>
        <mxCell id="3cde6dad864a17aa-12" style="edgeStyle=elbowEdgeStyle;html=1;labelBackgroundColor=none;endArrow=open;endSize=8;strokeColor=#ff0000;fontFamily=Verdana;fontSize=12;align=left;" parent="2a3bc250acf0617d-7" source="3cde6dad864a17aa-2" target="24f968d109e7d6b4-3" edge="1">
          <mxGeometry relative="1" as="geometry" />
        </mxCell>
        <mxCell id="3cde6dad864a17aa-2" value="SUPER-EGO" style="rounded=1;whiteSpace=wrap;html=1;arcSize=24;fillColor=#ffffc0;strokeColor=#ff0000;shadow=0;comic=0;labelBackgroundColor=none;fontFamily=Verdana;fontSize=12;fontColor=#000000;align=center;" parent="2a3bc250acf0617d-7" vertex="1">
          <mxGeometry x="585" y="65" width="120" height="60" as="geometry" />
        </mxCell>
        <mxCell id="2a3bc250acf0617d-9" style="edgeStyle=orthogonalEdgeStyle;html=1;labelBackgroundColor=none;endArrow=open;endSize=8;strokeColor=#2D7600;fontFamily=Verdana;fontSize=12;align=left;fillColor=#60a917;" parent="1" source="382b91b5511bd0f7-1" target="382b91b5511bd0f7-6" edge="1">
          <mxGeometry relative="1" as="geometry" />
        </mxCell>
        <mxCell id="N5seUgb6FrTklpnqwTxx-72" style="edgeStyle=orthogonalEdgeStyle;rounded=0;orthogonalLoop=1;jettySize=auto;html=1;entryX=0.5;entryY=1;entryDx=0;entryDy=0;" edge="1" parent="1" source="N5seUgb6FrTklpnqwTxx-15" target="382b91b5511bd0f7-10">
          <mxGeometry relative="1" as="geometry">
            <Array as="points">
              <mxPoint x="100" y="460" />
              <mxPoint x="325" y="460" />
            </Array>
          </mxGeometry>
        </mxCell>
        <mxCell id="N5seUgb6FrTklpnqwTxx-73" value="RESULT -&amp;gt;" style="edgeLabel;html=1;align=center;verticalAlign=middle;resizable=0;points=[];" vertex="1" connectable="0" parent="N5seUgb6FrTklpnqwTxx-72">
          <mxGeometry x="-0.3143" y="-3" relative="1" as="geometry">
            <mxPoint as="offset" />
          </mxGeometry>
        </mxCell>
        <mxCell id="N5seUgb6FrTklpnqwTxx-15" value="REDIS&lt;div&gt;stack&lt;/div&gt;" style="shape=cylinder3;whiteSpace=wrap;html=1;boundedLbl=1;backgroundOutline=1;size=15;fillColor=#FF0000;" vertex="1" parent="1">
          <mxGeometry x="70" y="370" width="60" height="80" as="geometry" />
        </mxCell>
        <mxCell id="N5seUgb6FrTklpnqwTxx-100" style="edgeStyle=orthogonalEdgeStyle;rounded=0;orthogonalLoop=1;jettySize=auto;html=1;" edge="1" parent="1" target="N5seUgb6FrTklpnqwTxx-99">
          <mxGeometry relative="1" as="geometry">
            <mxPoint x="690" y="170" as="sourcePoint" />
            <Array as="points">
              <mxPoint x="690" y="270" />
            </Array>
          </mxGeometry>
        </mxCell>
        <mxCell id="N5seUgb6FrTklpnqwTxx-110" style="edgeStyle=orthogonalEdgeStyle;rounded=0;orthogonalLoop=1;jettySize=auto;html=1;entryX=0.5;entryY=0;entryDx=0;entryDy=0;" edge="1" parent="1" source="N5seUgb6FrTklpnqwTxx-25" target="382b91b5511bd0f7-9">
          <mxGeometry relative="1" as="geometry" />
        </mxCell>
        <mxCell id="N5seUgb6FrTklpnqwTxx-25" value="LEVEL PREP RAG &amp;amp; SPR" style="swimlane;whiteSpace=wrap;html=1;rounded=1;shadow=0;comic=0;labelBackgroundColor=none;strokeWidth=1;fontFamily=Verdana;fontSize=12;align=center;" vertex="1" parent="1">
          <mxGeometry x="690" y="20" width="350" height="170" as="geometry" />
        </mxCell>
        <mxCell id="N5seUgb6FrTklpnqwTxx-109" style="edgeStyle=orthogonalEdgeStyle;rounded=0;orthogonalLoop=1;jettySize=auto;html=1;" edge="1" parent="N5seUgb6FrTklpnqwTxx-25" source="N5seUgb6FrTklpnqwTxx-23">
          <mxGeometry relative="1" as="geometry">
            <mxPoint x="180" y="160" as="targetPoint" />
            <Array as="points">
              <mxPoint x="180" y="70" />
              <mxPoint x="180" y="130" />
              <mxPoint x="181" y="130" />
            </Array>
          </mxGeometry>
        </mxCell>
        <mxCell id="N5seUgb6FrTklpnqwTxx-23" value="&lt;font style=&quot;font-size: 8px;&quot;&gt;DOLPHIN MIXTRAL 8X7B:&lt;br&gt;CREATE SPR REPRESENTATION OF FOLLOWING INPUT.&amp;nbsp;&lt;/font&gt;" style="whiteSpace=wrap;html=1;fontFamily=Verdana;fillColor=#b0e3e6;strokeColor=#0e8088;rounded=1;arcSize=24;shadow=0;comic=0;labelBackgroundColor=none;" vertex="1" parent="N5seUgb6FrTklpnqwTxx-25">
          <mxGeometry x="190" y="40" width="120" height="60" as="geometry" />
        </mxCell>
        <mxCell id="N5seUgb6FrTklpnqwTxx-108" style="edgeStyle=orthogonalEdgeStyle;rounded=0;orthogonalLoop=1;jettySize=auto;html=1;" edge="1" parent="N5seUgb6FrTklpnqwTxx-25" source="382b91b5511bd0f7-7">
          <mxGeometry relative="1" as="geometry">
            <mxPoint x="180" y="160" as="targetPoint" />
          </mxGeometry>
        </mxCell>
        <mxCell id="382b91b5511bd0f7-7" value="&lt;font style=&quot;font-size: 8px;&quot;&gt;nomic-embed-text;&lt;br&gt;CREATE EMBEDDING&lt;/font&gt;" style="rounded=1;whiteSpace=wrap;html=1;arcSize=24;fillColor=#b0e3e6;strokeColor=#0e8088;shadow=0;comic=0;labelBackgroundColor=none;fontFamily=Verdana;fontSize=12;align=center;" parent="N5seUgb6FrTklpnqwTxx-25" vertex="1">
          <mxGeometry x="40" y="40" width="120" height="60" as="geometry" />
        </mxCell>
        <mxCell id="N5seUgb6FrTklpnqwTxx-105" style="edgeStyle=orthogonalEdgeStyle;rounded=0;orthogonalLoop=1;jettySize=auto;html=1;endArrow=oval;endFill=1;" edge="1" parent="N5seUgb6FrTklpnqwTxx-25" source="N5seUgb6FrTklpnqwTxx-103">
          <mxGeometry relative="1" as="geometry">
            <mxPoint y="110" as="targetPoint" />
          </mxGeometry>
        </mxCell>
        <mxCell id="N5seUgb6FrTklpnqwTxx-107" style="edgeStyle=orthogonalEdgeStyle;rounded=0;orthogonalLoop=1;jettySize=auto;html=1;" edge="1" parent="N5seUgb6FrTklpnqwTxx-25" source="N5seUgb6FrTklpnqwTxx-103">
          <mxGeometry relative="1" as="geometry">
            <mxPoint x="110" y="110" as="targetPoint" />
          </mxGeometry>
        </mxCell>
        <mxCell id="N5seUgb6FrTklpnqwTxx-103" value="&lt;font style=&quot;font-size: 8px;&quot;&gt;SIG_REDIS,py&lt;/font&gt;" style="rounded=1;whiteSpace=wrap;html=1;fillColor=#e3c800;fontColor=#000000;strokeColor=#B09500;" vertex="1" parent="N5seUgb6FrTklpnqwTxx-25">
          <mxGeometry x="20" y="120" width="70" height="30" as="geometry" />
        </mxCell>
        <mxCell id="N5seUgb6FrTklpnqwTxx-37" value="&lt;font style=&quot;font-size: 8px;&quot;&gt;1. SAVE EMBEDDING&lt;/font&gt;&lt;div style=&quot;&quot;&gt;&lt;font style=&quot;font-size: 8px;&quot;&gt;2. PERFORM SIM SEARCH&lt;/font&gt;&lt;/div&gt;" style="text;html=1;align=left;verticalAlign=middle;resizable=0;points=[];autosize=1;strokeColor=none;fillColor=none;" vertex="1" parent="1">
          <mxGeometry x="140" y="370" width="120" height="40" as="geometry" />
        </mxCell>
        <mxCell id="N5seUgb6FrTklpnqwTxx-87" style="edgeStyle=orthogonalEdgeStyle;rounded=0;orthogonalLoop=1;jettySize=auto;html=1;shape=flexArrow;strokeColor=#80FF00;fillColor=#97D077;" edge="1" parent="1" source="N5seUgb6FrTklpnqwTxx-46">
          <mxGeometry relative="1" as="geometry">
            <mxPoint x="690" y="130" as="targetPoint" />
          </mxGeometry>
        </mxCell>
        <mxCell id="N5seUgb6FrTklpnqwTxx-46" value="SENSES - LEVEL" style="swimlane;whiteSpace=wrap;html=1;rounded=1;shadow=0;comic=0;labelBackgroundColor=none;strokeWidth=1;fontFamily=Verdana;fontSize=12;align=center;" vertex="1" parent="1">
          <mxGeometry x="190" y="20" width="415" height="220" as="geometry" />
        </mxCell>
        <mxCell id="N5seUgb6FrTklpnqwTxx-82" style="edgeStyle=orthogonalEdgeStyle;rounded=0;orthogonalLoop=1;jettySize=auto;html=1;entryX=0;entryY=0.5;entryDx=0;entryDy=0;" edge="1" parent="N5seUgb6FrTklpnqwTxx-46" source="N5seUgb6FrTklpnqwTxx-47" target="N5seUgb6FrTklpnqwTxx-74">
          <mxGeometry relative="1" as="geometry" />
        </mxCell>
        <mxCell id="N5seUgb6FrTklpnqwTxx-47" value="&lt;font style=&quot;font-size: 8px;&quot;&gt;&lt;b&gt;DOLPHIN MIXTRAL 8X7B:&lt;/b&gt;&lt;/font&gt;&lt;div&gt;&lt;span style=&quot;font-size: 8px;&quot;&gt;DETERMINE IF TASK, AND CREATE STEP BY STEP LIST&lt;/span&gt;&lt;/div&gt;" style="whiteSpace=wrap;html=1;fontFamily=Verdana;fillColor=#fa6800;strokeColor=#C73500;fontColor=#000000;rounded=1;arcSize=24;shadow=0;comic=0;labelBackgroundColor=none;" vertex="1" parent="N5seUgb6FrTklpnqwTxx-46">
          <mxGeometry x="20" y="140" width="160" height="60" as="geometry" />
        </mxCell>
        <mxCell id="N5seUgb6FrTklpnqwTxx-81" style="edgeStyle=orthogonalEdgeStyle;rounded=0;orthogonalLoop=1;jettySize=auto;html=1;entryX=0;entryY=0.5;entryDx=0;entryDy=0;startArrow=classic;startFill=1;" edge="1" parent="N5seUgb6FrTklpnqwTxx-46" source="N5seUgb6FrTklpnqwTxx-56" target="N5seUgb6FrTklpnqwTxx-75">
          <mxGeometry relative="1" as="geometry" />
        </mxCell>
        <mxCell id="N5seUgb6FrTklpnqwTxx-56" value="&lt;font style=&quot;font-size: 8px;&quot;&gt;&lt;b&gt;duckdb-nsql:&lt;/b&gt;&lt;/font&gt;&lt;div style=&quot;font-size: 8px;&quot;&gt;&lt;font style=&quot;font-size: 8px;&quot;&gt;search query in db&lt;/font&gt;&lt;/div&gt;" style="whiteSpace=wrap;html=1;fontFamily=Verdana;fillColor=#b0e3e6;strokeColor=#0e8088;rounded=1;arcSize=24;shadow=0;comic=0;labelBackgroundColor=none;" vertex="1" parent="N5seUgb6FrTklpnqwTxx-46">
          <mxGeometry x="20" y="30" width="140" height="70" as="geometry" />
        </mxCell>
        <mxCell id="N5seUgb6FrTklpnqwTxx-57" value="SQL" style="shape=cylinder3;whiteSpace=wrap;html=1;boundedLbl=1;backgroundOutline=1;size=15;fillColor=#6d8764;fontColor=#ffffff;strokeColor=#3A5431;" vertex="1" parent="N5seUgb6FrTklpnqwTxx-46">
          <mxGeometry x="340" y="40" width="60" height="80" as="geometry" />
        </mxCell>
        <mxCell id="N5seUgb6FrTklpnqwTxx-83" style="edgeStyle=orthogonalEdgeStyle;rounded=0;orthogonalLoop=1;jettySize=auto;html=1;entryX=0.5;entryY=1;entryDx=0;entryDy=0;" edge="1" parent="N5seUgb6FrTklpnqwTxx-46" source="N5seUgb6FrTklpnqwTxx-74" target="N5seUgb6FrTklpnqwTxx-78">
          <mxGeometry relative="1" as="geometry" />
        </mxCell>
        <mxCell id="N5seUgb6FrTklpnqwTxx-74" value="&lt;font style=&quot;font-size: 8px;&quot;&gt;SPLIT_LIST.py&lt;/font&gt;" style="rounded=1;whiteSpace=wrap;html=1;fillColor=#e3c800;fontColor=#000000;strokeColor=#B09500;" vertex="1" parent="N5seUgb6FrTklpnqwTxx-46">
          <mxGeometry x="210" y="155" width="70" height="30" as="geometry" />
        </mxCell>
        <mxCell id="N5seUgb6FrTklpnqwTxx-84" style="edgeStyle=orthogonalEdgeStyle;rounded=0;orthogonalLoop=1;jettySize=auto;html=1;" edge="1" parent="N5seUgb6FrTklpnqwTxx-46" source="N5seUgb6FrTklpnqwTxx-75" target="N5seUgb6FrTklpnqwTxx-78">
          <mxGeometry relative="1" as="geometry" />
        </mxCell>
        <mxCell id="N5seUgb6FrTklpnqwTxx-97" style="edgeStyle=orthogonalEdgeStyle;rounded=0;orthogonalLoop=1;jettySize=auto;html=1;startArrow=classic;startFill=1;" edge="1" parent="N5seUgb6FrTklpnqwTxx-46" source="N5seUgb6FrTklpnqwTxx-75">
          <mxGeometry relative="1" as="geometry">
            <mxPoint x="330" y="65" as="targetPoint" />
          </mxGeometry>
        </mxCell>
        <mxCell id="N5seUgb6FrTklpnqwTxx-75" value="&lt;font style=&quot;font-size: 8px;&quot;&gt;SEARCH_SQL.py&lt;/font&gt;" style="rounded=1;whiteSpace=wrap;html=1;fillColor=#e3c800;fontColor=#000000;strokeColor=#B09500;" vertex="1" parent="N5seUgb6FrTklpnqwTxx-46">
          <mxGeometry x="210" y="50" width="70" height="30" as="geometry" />
        </mxCell>
        <mxCell id="N5seUgb6FrTklpnqwTxx-86" style="edgeStyle=orthogonalEdgeStyle;rounded=0;orthogonalLoop=1;jettySize=auto;html=1;" edge="1" parent="N5seUgb6FrTklpnqwTxx-46" source="N5seUgb6FrTklpnqwTxx-78">
          <mxGeometry relative="1" as="geometry">
            <mxPoint x="330" y="115" as="targetPoint" />
          </mxGeometry>
        </mxCell>
        <mxCell id="N5seUgb6FrTklpnqwTxx-88" style="edgeStyle=orthogonalEdgeStyle;rounded=0;orthogonalLoop=1;jettySize=auto;html=1;entryX=0;entryY=0.75;entryDx=0;entryDy=0;" edge="1" parent="N5seUgb6FrTklpnqwTxx-46" source="N5seUgb6FrTklpnqwTxx-78" target="N5seUgb6FrTklpnqwTxx-89">
          <mxGeometry relative="1" as="geometry">
            <mxPoint x="300" y="190" as="targetPoint" />
          </mxGeometry>
        </mxCell>
        <mxCell id="N5seUgb6FrTklpnqwTxx-78" value="&lt;font style=&quot;font-size: 8px;&quot;&gt;ADD2DB.py&lt;/font&gt;" style="rounded=1;whiteSpace=wrap;html=1;fillColor=#e3c800;fontColor=#000000;strokeColor=#B09500;" vertex="1" parent="N5seUgb6FrTklpnqwTxx-46">
          <mxGeometry x="210" y="100" width="70" height="30" as="geometry" />
        </mxCell>
        <mxCell id="N5seUgb6FrTklpnqwTxx-98" style="edgeStyle=orthogonalEdgeStyle;rounded=0;orthogonalLoop=1;jettySize=auto;html=1;entryX=1;entryY=0.5;entryDx=0;entryDy=0;endArrow=oval;endFill=1;" edge="1" parent="N5seUgb6FrTklpnqwTxx-46" source="N5seUgb6FrTklpnqwTxx-89" target="N5seUgb6FrTklpnqwTxx-46">
          <mxGeometry relative="1" as="geometry">
            <Array as="points">
              <mxPoint x="355" y="135" />
              <mxPoint x="415" y="135" />
            </Array>
          </mxGeometry>
        </mxCell>
        <mxCell id="N5seUgb6FrTklpnqwTxx-89" value="&lt;font style=&quot;font-size: 8px;&quot;&gt;SIG_REDIS,py&lt;/font&gt;" style="rounded=1;whiteSpace=wrap;html=1;fillColor=#e3c800;fontColor=#000000;strokeColor=#B09500;" vertex="1" parent="N5seUgb6FrTklpnqwTxx-46">
          <mxGeometry x="320" y="155" width="70" height="30" as="geometry" />
        </mxCell>
        <mxCell id="N5seUgb6FrTklpnqwTxx-53" value="&lt;b&gt;paid&amp;nbsp;&lt;/b&gt;&lt;div&gt;&lt;b&gt;LLM&lt;/b&gt;&lt;/div&gt;" style="whiteSpace=wrap;html=1;fontFamily=Verdana;fillColor=#fa6800;strokeColor=#C73500;fontColor=#000000;rounded=1;arcSize=24;shadow=0;comic=0;labelBackgroundColor=none;" vertex="1" parent="1">
          <mxGeometry x="195" y="-160" width="70" height="30" as="geometry" />
        </mxCell>
        <mxCell id="N5seUgb6FrTklpnqwTxx-55" value="script" style="rounded=1;whiteSpace=wrap;html=1;fillColor=#e3c800;fontColor=#000000;strokeColor=#B09500;" vertex="1" parent="1">
          <mxGeometry x="280" y="-160" width="70" height="30" as="geometry" />
        </mxCell>
        <mxCell id="N5seUgb6FrTklpnqwTxx-92" value="&lt;b&gt;local&amp;nbsp;&lt;/b&gt;&lt;div&gt;&lt;b&gt;LLM&lt;/b&gt;&lt;/div&gt;" style="whiteSpace=wrap;html=1;fontFamily=Verdana;fillColor=#b1ddf0;strokeColor=#10739e;rounded=1;arcSize=24;shadow=0;comic=0;labelBackgroundColor=none;" vertex="1" parent="1">
          <mxGeometry x="110" y="-160" width="70" height="30" as="geometry" />
        </mxCell>
        <mxCell id="N5seUgb6FrTklpnqwTxx-101" style="edgeStyle=orthogonalEdgeStyle;rounded=0;orthogonalLoop=1;jettySize=auto;html=1;" edge="1" parent="1" source="N5seUgb6FrTklpnqwTxx-99" target="N5seUgb6FrTklpnqwTxx-15">
          <mxGeometry relative="1" as="geometry">
            <mxPoint x="120" y="360" as="targetPoint" />
          </mxGeometry>
        </mxCell>
        <mxCell id="N5seUgb6FrTklpnqwTxx-99" value="&lt;span style=&quot;font-family: Verdana; font-size: 8px;&quot;&gt;CREATE EMBEDDING&lt;/span&gt;" style="rhombus;whiteSpace=wrap;html=1;fillColor=#b0e3e6;strokeColor=#0e8088;" vertex="1" parent="1">
          <mxGeometry x="60" y="230" width="80" height="80" as="geometry" />
        </mxCell>
      </root>
    </mxGraphModel>
  </diagram>
</mxfile>
